<?xml version="1.0" encoding="UTF-8" standalone="no"?><svg xmlns="http://www.w3.org/2000/svg" xmlns:xlink="http://www.w3.org/1999/xlink" contentScriptType="application/ecmascript" contentStyleType="text/css" height="499px" preserveAspectRatio="none" style="width:457px;height:499px;" version="1.1" viewBox="0 0 457 499" width="457px" zoomAndPan="magnify"><defs><filter height="300%" id="f1e6qb7bd8ej46" width="300%" x="-1" y="-1"><feGaussianBlur result="blurOut" stdDeviation="2.0"/><feColorMatrix in="blurOut" result="blurOut2" type="matrix" values="0 0 0 0 0 0 0 0 0 0 0 0 0 0 0 0 0 0 .4 0"/><feOffset dx="4.0" dy="4.0" in="blurOut2" result="blurOut3"/><feBlend in="SourceGraphic" in2="blurOut3" mode="normal"/></filter></defs><g><!--MD5=[c160724f8e3bb89ca8141a12554ac2e3]
class Collection--><rect fill="#FEFECE" filter="url(#f1e6qb7bd8ej46)" height="48" id="Collection" style="stroke: #A80036; stroke-width: 1.5;" width="105" x="96" y="116"/><ellipse cx="111" cy="132" fill="#B4A7E5" rx="11" ry="11" style="stroke: #A80036; stroke-width: 1.0;"/><path d="M106.9219,127.7656 L106.9219,125.6094 L114.3125,125.6094 L114.3125,127.7656 L111.8438,127.7656 L111.8438,135.8438 L114.3125,135.8438 L114.3125,138 L106.9219,138 L106.9219,135.8438 L109.3906,135.8438 L109.3906,127.7656 L106.9219,127.7656 Z "/><text fill="#000000" font-family="sans-serif" font-size="12" font-style="italic" lengthAdjust="spacingAndGlyphs" textLength="61" x="125" y="136.1543">Collection</text><rect fill="#FFFFFF" height="15.9688" style="stroke: #000000; stroke-width: 1.0; stroke-dasharray: 2.0,2.0;" width="10" x="194" y="113"/><text fill="#000000" font-family="sans-serif" font-size="12" font-style="italic" lengthAdjust="spacingAndGlyphs" textLength="8" x="195" y="125.1387">E</text><line style="stroke: #A80036; stroke-width: 1.5;" x1="97" x2="200" y1="148" y2="148"/><line style="stroke: #A80036; stroke-width: 1.5;" x1="97" x2="200" y1="156" y2="156"/><!--MD5=[9c183a97b7cd5c0903b959c19c89d06b]
class DeQueue--><rect fill="#FEFECE" filter="url(#f1e6qb7bd8ej46)" height="48" id="DeQueue" style="stroke: #A80036; stroke-width: 1.5;" width="102" x="90.5" y="332"/><ellipse cx="105.5" cy="348" fill="#B4A7E5" rx="11" ry="11" style="stroke: #A80036; stroke-width: 1.0;"/><path d="M101.4219,343.7656 L101.4219,341.6094 L108.8125,341.6094 L108.8125,343.7656 L106.3438,343.7656 L106.3438,351.8438 L108.8125,351.8438 L108.8125,354 L101.4219,354 L101.4219,351.8438 L103.8906,351.8438 L103.8906,343.7656 L101.4219,343.7656 Z "/><text fill="#000000" font-family="sans-serif" font-size="12" font-style="italic" lengthAdjust="spacingAndGlyphs" textLength="58" x="119.5" y="352.1543">DeQueue</text><rect fill="#FFFFFF" height="15.9688" style="stroke: #000000; stroke-width: 1.0; stroke-dasharray: 2.0,2.0;" width="10" x="185.5" y="329"/><text fill="#000000" font-family="sans-serif" font-size="12" font-style="italic" lengthAdjust="spacingAndGlyphs" textLength="8" x="186.5" y="341.1387">E</text><line style="stroke: #A80036; stroke-width: 1.5;" x1="91.5" x2="191.5" y1="364" y2="364"/><line style="stroke: #A80036; stroke-width: 1.5;" x1="91.5" x2="191.5" y1="372" y2="372"/><!--MD5=[47de47a8b5f06cbc5e036fae0a9149b7]
class Iterable--><rect fill="#FEFECE" filter="url(#f1e6qb7bd8ej46)" height="48" id="Iterable" style="stroke: #A80036; stroke-width: 1.5;" width="91" x="103" y="8"/><ellipse cx="118" cy="24" fill="#B4A7E5" rx="11" ry="11" style="stroke: #A80036; stroke-width: 1.0;"/><path d="M113.9219,19.7656 L113.9219,17.6094 L121.3125,17.6094 L121.3125,19.7656 L118.8438,19.7656 L118.8438,27.8438 L121.3125,27.8438 L121.3125,30 L113.9219,30 L113.9219,27.8438 L116.3906,27.8438 L116.3906,19.7656 L113.9219,19.7656 Z "/><text fill="#000000" font-family="sans-serif" font-size="12" font-style="italic" lengthAdjust="spacingAndGlyphs" textLength="48" x="132" y="28.1543">Iterable</text><rect fill="#FFFFFF" height="15.9688" style="stroke: #000000; stroke-width: 1.0; stroke-dasharray: 2.0,2.0;" width="9" x="188" y="5"/><text fill="#000000" font-family="sans-serif" font-size="12" font-style="italic" lengthAdjust="spacingAndGlyphs" textLength="7" x="189" y="17.1387">T</text><line style="stroke: #A80036; stroke-width: 1.5;" x1="104" x2="193" y1="40" y2="40"/><line style="stroke: #A80036; stroke-width: 1.5;" x1="104" x2="193" y1="48" y2="48"/><path d="M229.5,19.5 L229.5,28 L194.2734,32 L229.5,36 L229.5,44.6328 A0,0 0 0 0 229.5,44.6328 L445.5,44.6328 A0,0 0 0 0 445.5,44.6328 L445.5,29.5 L435.5,19.5 L229.5,19.5 A0,0 0 0 0 229.5,19.5 " fill="#FBFB77" filter="url(#f1e6qb7bd8ej46)" style="stroke: #A80036; stroke-width: 1.0;"/><path d="M435.5,19.5 L435.5,29.5 L445.5,29.5 L435.5,19.5 " fill="#FBFB77" style="stroke: #A80036; stroke-width: 1.0;"/><text fill="#000000" font-family="sans-serif" font-size="13" lengthAdjust="spacingAndGlyphs" textLength="195" x="235.5" y="36.5669">autorise l'utilisation du foreach</text><!--MD5=[3d4177ac58b4411586d067f34e84928f]
class List--><rect fill="#FEFECE" filter="url(#f1e6qb7bd8ej46)" height="48" id="List" style="stroke: #A80036; stroke-width: 1.5;" width="65" x="6" y="224"/><ellipse cx="21" cy="240" fill="#B4A7E5" rx="11" ry="11" style="stroke: #A80036; stroke-width: 1.0;"/><path d="M16.9219,235.7656 L16.9219,233.6094 L24.3125,233.6094 L24.3125,235.7656 L21.8438,235.7656 L21.8438,243.8438 L24.3125,243.8438 L24.3125,246 L16.9219,246 L16.9219,243.8438 L19.3906,243.8438 L19.3906,235.7656 L16.9219,235.7656 Z "/><text fill="#000000" font-family="sans-serif" font-size="12" font-style="italic" lengthAdjust="spacingAndGlyphs" textLength="21" x="35" y="244.1543">List</text><rect fill="#FFFFFF" height="15.9688" style="stroke: #000000; stroke-width: 1.0; stroke-dasharray: 2.0,2.0;" width="10" x="64" y="221"/><text fill="#000000" font-family="sans-serif" font-size="12" font-style="italic" lengthAdjust="spacingAndGlyphs" textLength="8" x="65" y="233.1387">E</text><line style="stroke: #A80036; stroke-width: 1.5;" x1="7" x2="70" y1="256" y2="256"/><line style="stroke: #A80036; stroke-width: 1.5;" x1="7" x2="70" y1="264" y2="264"/><!--MD5=[9a382033cbbfde0ee4ba2c7fe290f50d]
class NavigableSet--><rect fill="#FEFECE" filter="url(#f1e6qb7bd8ej46)" height="48" id="NavigableSet" style="stroke: #A80036; stroke-width: 1.5;" width="126" x="218.5" y="440"/><ellipse cx="233.5" cy="456" fill="#B4A7E5" rx="11" ry="11" style="stroke: #A80036; stroke-width: 1.0;"/><path d="M229.4219,451.7656 L229.4219,449.6094 L236.8125,449.6094 L236.8125,451.7656 L234.3438,451.7656 L234.3438,459.8438 L236.8125,459.8438 L236.8125,462 L229.4219,462 L229.4219,459.8438 L231.8906,459.8438 L231.8906,451.7656 L229.4219,451.7656 Z "/><text fill="#000000" font-family="sans-serif" font-size="12" font-style="italic" lengthAdjust="spacingAndGlyphs" textLength="82" x="247.5" y="460.1543">NavigableSet</text><rect fill="#FFFFFF" height="15.9688" style="stroke: #000000; stroke-width: 1.0; stroke-dasharray: 2.0,2.0;" width="10" x="337.5" y="437"/><text fill="#000000" font-family="sans-serif" font-size="12" font-style="italic" lengthAdjust="spacingAndGlyphs" textLength="8" x="338.5" y="449.1387">E</text><line style="stroke: #A80036; stroke-width: 1.5;" x1="219.5" x2="343.5" y1="472" y2="472"/><line style="stroke: #A80036; stroke-width: 1.5;" x1="219.5" x2="343.5" y1="480" y2="480"/><!--MD5=[15b0de36700cf8bf422172734e699e19]
class Queue--><rect fill="#FEFECE" filter="url(#f1e6qb7bd8ej46)" height="48" id="Queue" style="stroke: #A80036; stroke-width: 1.5;" width="85" x="106" y="224"/><ellipse cx="121" cy="240" fill="#B4A7E5" rx="11" ry="11" style="stroke: #A80036; stroke-width: 1.0;"/><path d="M116.9219,235.7656 L116.9219,233.6094 L124.3125,233.6094 L124.3125,235.7656 L121.8438,235.7656 L121.8438,243.8438 L124.3125,243.8438 L124.3125,246 L116.9219,246 L116.9219,243.8438 L119.3906,243.8438 L119.3906,235.7656 L116.9219,235.7656 Z "/><text fill="#000000" font-family="sans-serif" font-size="12" font-style="italic" lengthAdjust="spacingAndGlyphs" textLength="41" x="135" y="244.1543">Queue</text><rect fill="#FFFFFF" height="15.9688" style="stroke: #000000; stroke-width: 1.0; stroke-dasharray: 2.0,2.0;" width="10" x="184" y="221"/><text fill="#000000" font-family="sans-serif" font-size="12" font-style="italic" lengthAdjust="spacingAndGlyphs" textLength="8" x="185" y="233.1387">E</text><line style="stroke: #A80036; stroke-width: 1.5;" x1="107" x2="190" y1="256" y2="256"/><line style="stroke: #A80036; stroke-width: 1.5;" x1="107" x2="190" y1="264" y2="264"/><!--MD5=[73145e46247802284b2f7aaef1fa1797]
class Set--><rect fill="#FEFECE" filter="url(#f1e6qb7bd8ej46)" height="48" id="Set" style="stroke: #A80036; stroke-width: 1.5;" width="65" x="241" y="224"/><ellipse cx="256" cy="240" fill="#B4A7E5" rx="11" ry="11" style="stroke: #A80036; stroke-width: 1.0;"/><path d="M251.9219,235.7656 L251.9219,233.6094 L259.3125,233.6094 L259.3125,235.7656 L256.8438,235.7656 L256.8438,243.8438 L259.3125,243.8438 L259.3125,246 L251.9219,246 L251.9219,243.8438 L254.3906,243.8438 L254.3906,235.7656 L251.9219,235.7656 Z "/><text fill="#000000" font-family="sans-serif" font-size="12" font-style="italic" lengthAdjust="spacingAndGlyphs" textLength="21" x="270" y="244.1543">Set</text><rect fill="#FFFFFF" height="15.9688" style="stroke: #000000; stroke-width: 1.0; stroke-dasharray: 2.0,2.0;" width="10" x="299" y="221"/><text fill="#000000" font-family="sans-serif" font-size="12" font-style="italic" lengthAdjust="spacingAndGlyphs" textLength="8" x="300" y="233.1387">E</text><line style="stroke: #A80036; stroke-width: 1.5;" x1="242" x2="305" y1="256" y2="256"/><line style="stroke: #A80036; stroke-width: 1.5;" x1="242" x2="305" y1="264" y2="264"/><!--MD5=[c671e22bb1cd81cc807e7f83f36310d2]
class SortedSet--><rect fill="#FEFECE" filter="url(#f1e6qb7bd8ej46)" height="48" id="SortedSet" style="stroke: #A80036; stroke-width: 1.5;" width="107" x="228" y="332"/><ellipse cx="243" cy="348" fill="#B4A7E5" rx="11" ry="11" style="stroke: #A80036; stroke-width: 1.0;"/><path d="M238.9219,343.7656 L238.9219,341.6094 L246.3125,341.6094 L246.3125,343.7656 L243.8438,343.7656 L243.8438,351.8438 L246.3125,351.8438 L246.3125,354 L238.9219,354 L238.9219,351.8438 L241.3906,351.8438 L241.3906,343.7656 L238.9219,343.7656 Z "/><text fill="#000000" font-family="sans-serif" font-size="12" font-style="italic" lengthAdjust="spacingAndGlyphs" textLength="63" x="257" y="352.1543">SortedSet</text><rect fill="#FFFFFF" height="15.9688" style="stroke: #000000; stroke-width: 1.0; stroke-dasharray: 2.0,2.0;" width="10" x="328" y="329"/><text fill="#000000" font-family="sans-serif" font-size="12" font-style="italic" lengthAdjust="spacingAndGlyphs" textLength="8" x="329" y="341.1387">E</text><line style="stroke: #A80036; stroke-width: 1.5;" x1="229" x2="334" y1="364" y2="364"/><line style="stroke: #A80036; stroke-width: 1.5;" x1="229" x2="334" y1="372" y2="372"/><!--MD5=[30609b773d1acd1d8ef4d49cf63668f8]
reverse link Iterable to Collection--><path d="M148.5,76.2911 C148.5,89.8171 148.5,104.1835 148.5,115.8436 " fill="none" id="Iterable&lt;-Collection" style="stroke: #A80036; stroke-width: 1.0;"/><polygon fill="none" points="141.5001,76.2373,148.5,56.2373,155.5001,76.2373,141.5001,76.2373" style="stroke: #A80036; stroke-width: 1.0;"/><!--MD5=[0159284274f96a472eb2618ad803aaca]
reverse link Collection to List--><path d="M109.23,178.556 C93.8491,193.6572 76.6763,210.5178 63.1038,223.8436 " fill="none" id="Collection&lt;-List" style="stroke: #A80036; stroke-width: 1.0;"/><polygon fill="none" points="104.6384,173.2542,123.8139,164.2373,114.4467,183.2441,104.6384,173.2542" style="stroke: #A80036; stroke-width: 1.0;"/><!--MD5=[ed6173059207d719d56c0a76f1c566ad]
reverse link Collection to Queue--><path d="M148.5,184.2911 C148.5,197.8171 148.5,212.1835 148.5,223.8436 " fill="none" id="Collection&lt;-Queue" style="stroke: #A80036; stroke-width: 1.0;"/><polygon fill="none" points="141.5001,184.2373,148.5,164.2373,155.5001,184.2373,141.5001,184.2373" style="stroke: #A80036; stroke-width: 1.0;"/><!--MD5=[1317568493796c4665b61a5c76c851cf]
reverse link Collection to Set--><path d="M191.7637,177.3799 C209.5841,192.7767 229.7162,210.1708 245.5412,223.8436 " fill="none" id="Collection&lt;-Set" style="stroke: #A80036; stroke-width: 1.0;"/><polygon fill="none" points="187.1097,182.6097,176.5524,164.2373,196.2627,172.0161,187.1097,182.6097" style="stroke: #A80036; stroke-width: 1.0;"/><!--MD5=[738dedd2cba4da08e0c3a77ce5ea4635]
reverse link Queue to DeQueue--><path d="M145.6293,292.2911 C144.7526,305.8171 143.8214,320.1835 143.0657,331.8436 " fill="none" id="Queue&lt;-DeQueue" style="stroke: #A80036; stroke-width: 1.0;"/><polygon fill="none" points="138.65,291.7426,146.9291,272.2373,152.6207,292.6482,138.65,291.7426" style="stroke: #A80036; stroke-width: 1.0;"/><!--MD5=[92fae5c9076f5680ae937211bfcbd733]
reverse link Set to SortedSet--><path d="M276.7808,292.2911 C277.7827,305.8171 278.8469,320.1835 279.7106,331.8436 " fill="none" id="Set&lt;-SortedSet" style="stroke: #A80036; stroke-width: 1.0;"/><polygon fill="none" points="269.792,292.6998,275.2954,272.2373,283.7538,291.6655,269.792,292.6998" style="stroke: #A80036; stroke-width: 1.0;"/><!--MD5=[aacefb7b0fbbe26874d96b78ab90ff15]
reverse link SortedSet to NavigableSet--><path d="M281.5,400.2911 C281.5,413.8171 281.5,428.1835 281.5,439.8436 " fill="none" id="SortedSet&lt;-NavigableSet" style="stroke: #A80036; stroke-width: 1.0;"/><polygon fill="none" points="274.5001,400.2373,281.5,380.2373,288.5001,400.2373,274.5001,400.2373" style="stroke: #A80036; stroke-width: 1.0;"/><!--MD5=[a1c5316805a83faa70e366169a8a3788]
@startuml
interface Collection<E>
interface DeQueue<E>
Interface Iterable<T>
note right of Iterable : autorise l'utilisation du foreach
interface List<E>
Interface NavigableSet<E>
interface Queue<E>
interface Set<E>
interface SortedSet<E>

Iterable <|- - Collection
Collection <|- - List
Collection <|- - Queue
Collection <|- - Set
Queue <|- - DeQueue
Set <|- - SortedSet
SortedSet <|- - NavigableSet
@enduml

PlantUML version 1.2019.12(Sun Nov 03 10:24:54 UTC 2019)
(APACHE source distribution)
Java Runtime: OpenJDK Runtime Environment
JVM: OpenJDK 64-Bit Server VM
Java Version: 11.0.9+11-LTS
Operating System: Linux
Default Encoding: UTF-8
Language: en
Country: 
--></g></svg>