<?xml version="1.0" encoding="UTF-8"?><svg xmlns="http://www.w3.org/2000/svg" width="890" height="126" version="1.0" shape-rendering="geometricPrecision"><defs><style type="text/css">@font-face {
  font-family: sans-serif;
}</style><filter id="shadowBlur" x="0" y="0" width="200%" height="200%"><feOffset in="SourceGraphic" dx="3.0003002" dy="3.0003002" result="offOut"></feOffset><feGaussianBlur in="offOut" stdDeviation="3"></feGaussianBlur></filter></defs><g stroke-width="1" stroke-linecap="square" stroke-linejoin="round"><rect x="0" y="0" width="890" height="126" style="fill: #ffffff"></rect><path stroke="#969696" fill="#969696" filter="url(#shadowBlur)" d="M345.0 35.0 L345.0 91.0 L205.0 91.0 L205.0 35.0 z"></path><path stroke="#969696" fill="#969696" filter="url(#shadowBlur)" d="M565.0 35.0 L565.0 91.0 L695.0 91.0 L695.0 35.0 z"></path><path stroke="#969696" fill="#969696" filter="url(#shadowBlur)" d="M865.0 35.0 L865.0 91.0 L745.0 91.0 L745.0 35.0 z"></path><path stroke="#969696" fill="#969696" filter="url(#shadowBlur)" d="M395.0 35.0 L515.0 35.0 L515.0 91.0 Q475.0 84.0 455.0 91.0 Q435.0 98.0 395.0 91.0 z"></path><path stroke="#969696" fill="#969696" filter="url(#shadowBlur)" d="M35.0 35.0 L155.0 35.0 L155.0 91.0 Q115.0 84.0 95.0 91.0 Q75.0 98.0 35.0 91.0 z"></path><path stroke="#000000" stroke-width="1.0" stroke-linecap="round" stroke-linejoin="round" fill="#ffff33" d="M345.0 35.0 L345.0 91.0 L205.0 91.0 L205.0 35.0 z"></path><path stroke="#000000" stroke-width="1.0" stroke-linecap="round" stroke-linejoin="round" fill="#5555bb" d="M565.0 35.0 L565.0 91.0 L695.0 91.0 L695.0 35.0 z"></path><path stroke="#000000" stroke-width="1.0" stroke-linecap="round" stroke-linejoin="round" fill="white" d="M865.0 35.0 L865.0 91.0 L745.0 91.0 L745.0 35.0 z"></path><path stroke="#000000" stroke-width="1.0" stroke-linecap="round" stroke-linejoin="round" fill="white" d="M395.0 35.0 L515.0 35.0 L515.0 91.0 Q475.0 84.0 455.0 91.0 Q435.0 98.0 395.0 91.0 z"></path><path stroke="#000000" stroke-width="1.0" stroke-linecap="round" stroke-linejoin="round" fill="white" d="M35.0 35.0 L155.0 35.0 L155.0 91.0 Q115.0 84.0 95.0 91.0 Q75.0 98.0 35.0 91.0 z"></path><path stroke="none" stroke-width="1.0" stroke-linecap="round" stroke-linejoin="round" fill="#000000" d="M190.0 56.0 L200.0 63.0 L190.0 70.0 z"></path><path stroke="none" stroke-width="1.0" stroke-linecap="round" stroke-linejoin="round" fill="#000000" d="M380.0 56.0 L390.0 63.0 L380.0 70.0 z"></path><path stroke="none" stroke-width="1.0" stroke-linecap="round" stroke-linejoin="round" fill="#000000" d="M550.0 56.0 L560.0 63.0 L550.0 70.0 z"></path><path stroke="none" stroke-width="1.0" stroke-linecap="round" stroke-linejoin="round" fill="#000000" d="M730.0 56.0 L740.0 63.0 L730.0 70.0 z"></path><path stroke="#000000" stroke-width="1.0" stroke-linecap="round" stroke-linejoin="round" fill="none" d="M355.0 63.0 L385.0 63.0 "></path><path stroke="#000000" stroke-width="1.0" stroke-linecap="round" stroke-linejoin="round" fill="none" d="M735.0 63.0 L705.0 63.0 "></path><path stroke="#000000" stroke-width="1.0" stroke-linecap="round" stroke-linejoin="round" fill="none" d="M195.0 63.0 L165.0 63.0 "></path><path stroke="#000000" stroke-width="1.0" stroke-linecap="round" stroke-linejoin="round" fill="none" d="M525.0 63.0 L555.0 63.0 "></path><text x="580" y="54" font-family="sans-serif" font-size="15" stroke="none" fill="#ffffff"><![CDATA[Machine]]></text><text x="580" y="68" font-family="sans-serif" font-size="15" stroke="none" fill="#ffffff"><![CDATA[Virtuelle]]></text><text x="580" y="82" font-family="sans-serif" font-size="15" stroke="none" fill="#ffffff"><![CDATA[(java)]]></text><text x="220" y="54" font-family="sans-serif" font-size="15" stroke="none" fill="#000000"><![CDATA[Compilateur]]></text><text x="220" y="68" font-family="sans-serif" font-size="15" stroke="none" fill="#000000"><![CDATA[(javac)]]></text><text x="760" y="54" font-family="sans-serif" font-size="15" stroke="none" fill="#000000"><![CDATA[Exécution]]></text><text x="760" y="68" font-family="sans-serif" font-size="15" stroke="none" fill="#000000"><![CDATA[de Prog]]></text><text x="418" y="68" font-family="sans-serif" font-size="15" stroke="none" fill="#000000"><![CDATA[Prog.class]]></text><text x="57" y="68" font-family="sans-serif" font-size="15" stroke="none" fill="#000000"><![CDATA[Prog.java]]></text></g></svg>