<?xml version="1.0" encoding="UTF-8"?><svg xmlns="http://www.w3.org/2000/svg" width="240" height="140" version="1.0" shape-rendering="geometricPrecision"><defs><style type="text/css">@font-face {
  font-family: sans-serif;
}</style><filter id="shadowBlur" x="0" y="0" width="200%" height="200%"><feOffset in="SourceGraphic" dx="3.0003002" dy="3.0003002" result="offOut"></feOffset><feGaussianBlur in="offOut" stdDeviation="3"></feGaussianBlur></filter></defs><g stroke-width="1" stroke-linecap="square" stroke-linejoin="round"><rect x="0" y="0" width="240" height="140" style="fill: #ffffff"></rect><path stroke="#969696" fill="#969696" filter="url(#shadowBlur)" d="M210.0 49.0 Q215.0 49.0 215.0 56.0 L215.0 98.0 Q215.0 105.0 210.0 105.0 L150.0 105.0 L150.0 105.0 Q145.0 105.0 145.0 98.0 L145.0 56.0 L145.0 56.0 Q145.0 49.0 150.0 49.0 L210.0 49.0 z"></path><path stroke="#969696" fill="#969696" filter="url(#shadowBlur)" d="M35.0 49.0 L35.0 77.0 L95.0 77.0 L95.0 49.0 z"></path><path stroke="#000000" stroke-width="1.0" stroke-linecap="round" stroke-linejoin="round" fill="#99dd99" d="M210.0 49.0 Q215.0 49.0 215.0 56.0 L215.0 98.0 Q215.0 105.0 210.0 105.0 L150.0 105.0 L150.0 105.0 Q145.0 105.0 145.0 98.0 L145.0 56.0 L145.0 56.0 Q145.0 49.0 150.0 49.0 L210.0 49.0 z"></path><path stroke="#000000" stroke-width="1.0" stroke-linecap="round" stroke-linejoin="round" fill="white" d="M35.0 49.0 L35.0 77.0 L95.0 77.0 L95.0 49.0 z"></path><path stroke="none" stroke-width="1.0" stroke-linecap="round" stroke-linejoin="round" fill="#000000" d="M130.0 56.0 L140.0 63.0 L130.0 70.0 z"></path><path stroke="#000000" stroke-width="1.0" stroke-linecap="round" stroke-linejoin="round" fill="none" d="M135.0 63.0 L95.0 63.0 "></path><text x="33" y="40" font-family="sans-serif" font-size="15" stroke="none" fill="#000000"><![CDATA[unObjet]]></text></g></svg>